<?xml version="1.0" standalone="no"?>
<!DOCTYPE svg PUBLIC "-//W3C//DTD SVG 20010904//EN"
 "http://www.w3.org/TR/2001/REC-SVG-20010904/DTD/svg10.dtd">
<svg version="1.0" xmlns="http://www.w3.org/2000/svg"
 width="960.000000pt" height="960.000000pt" viewBox="0 0 960.000000 960.000000"
 preserveAspectRatio="xMidYMid meet">
<metadata>
Created by potrace 1.14, written by Peter Selinger 2001-2017
</metadata>
<g transform="translate(0.000000,960.000000) scale(0.100000,-0.100000)"
fill="#000000" stroke="none">
<path d="M4648 7804 c-2 -1 -50 -5 -108 -9 -57 -3 -107 -8 -110 -10 -3 -1 -27
-5 -55 -9 -65 -8 -96 -13 -180 -31 -38 -8 -79 -17 -90 -19 -116 -23 -443 -132
-522 -175 -10 -5 -67 -34 -128 -64 -154 -76 -290 -156 -385 -227 -216 -162
-255 -195 -405 -346 -117 -118 -118 -119 -210 -234 -251 -311 -439 -675 -550
-1065 -9 -33 -19 -68 -21 -78 -2 -10 -5 -26 -8 -35 -5 -16 -10 -42 -21 -99 -3
-16 -8 -39 -11 -53 -10 -44 -13 -61 -20 -119 -3 -31 -8 -65 -10 -76 -24 -119
-23 -545 0 -715 3 -19 8 -55 11 -80 6 -51 22 -135 36 -195 5 -22 11 -49 13
-60 40 -217 185 -575 335 -828 62 -105 63 -108 86 -142 162 -250 434 -539 686
-728 95 -72 264 -187 274 -187 4 0 19 -9 34 -19 33 -24 268 -142 341 -171 30
-12 70 -29 88 -37 64 -28 318 -106 387 -119 11 -2 38 -8 60 -13 60 -14 144
-30 195 -36 25 -3 61 -8 80 -11 170 -23 597 -24 715 0 11 2 45 7 76 10 58 7
75 10 119 20 14 3 37 8 53 11 57 11 83 16 99 21 9 3 25 7 36 9 31 6 161 44
242 72 193 65 332 130 574 268 28 15 55 32 60 36 6 5 36 25 66 45 52 35 159
113 170 124 3 3 25 21 49 39 88 69 287 260 361 347 187 219 308 400 430 644
108 214 206 485 236 649 3 12 11 51 19 85 7 33 16 79 20 101 3 23 7 50 9 60 5
25 15 104 22 175 9 87 11 418 3 495 -4 39 -10 97 -13 130 -10 99 -41 268 -68
370 -5 22 -12 47 -13 55 -13 55 -72 233 -109 326 -73 184 -235 493 -283 542
-7 7 -13 17 -13 21 0 10 -151 212 -215 287 -180 213 -472 461 -710 605 -102
62 -343 189 -359 189 -3 0 -29 11 -58 24 -29 13 -75 31 -103 41 -27 9 -59 21
-70 25 -29 12 -139 46 -225 69 -122 32 -280 63 -395 75 -27 3 -75 8 -105 12
-52 6 -407 13 -412 8z"/>
</g>
</svg>
